<?xml version="1.0" encoding="UTF-8" standalone="no"?>
<!-- Created with Inkscape (http://www.inkscape.org/) -->

<svg
   width="179.69661mm"
   height="170.75616mm"
   viewBox="0 0 179.69661 170.75616"
   version="1.1"
   id="svg5"
   xml:space="preserve"
   xmlns="http://www.w3.org/2000/svg"
   xmlns:svg="http://www.w3.org/2000/svg"><defs
     id="defs2" /><g
     id="layer1"
     transform="translate(-14.893944,-14.926708)"><path
       id="path242"
       style="fill:#000000;stroke-width:0.264583"
       d="m 103.33788,14.926737 c -23.346124,0 -60.854855,19.519493 -68.126593,27.93938 -7.271715,8.41991 -19.519086,31.766955 -20.28455,54.347587 -0.636471,18.776116 8.167009,34.736346 11.180713,39.638926 1.31542,-0.0872 2.632811,-0.1494 3.94808,-0.13281 1.300269,0.0164 2.598588,0.1069 3.890718,0.31781 0.574755,0.0938 1.109507,0.27186 1.659847,0.44235 0.656341,0.22299 1.339036,0.37004 2.01073,0.53744 1.041324,0.20247 2.081067,0.43442 3.081466,0.79271 0.478778,0.18179 0.94918,0.38433 1.429887,0.55914 -0.0086,-0.0186 -0.01933,-0.0362 -0.0279,-0.0548 -6.889007,-14.92606 4.593472,-32.9152 18.371488,-37.89071 13.778013,-4.975325 24.49471,-4.209584 32.531864,9.56841 8.03713,13.77811 -2.295792,9.95179 11.09959,47.84153 7.08555,20.0422 14.81152,14.70091 18.99057,4.4328 -0.004,-0.0311 -0.008,-0.062 -0.0114,-0.093 -0.13962,-1.38878 -0.20236,-2.78363 -0.29456,-4.17597 -0.0742,-1.1888 -0.29122,-2.36074 -0.48524,-3.53363 -0.22904,-1.14777 -0.59104,-2.25926 -1.00717,-3.3507 -0.44274,-1.13998 -0.92809,-2.26445 -1.48105,-3.35535 -0.54694,-1.05358 -1.06013,-2.12325 -1.55081,-3.20394 -0.50235,-1.12237 -0.88024,-2.29319 -1.29398,-3.44941 -0.3965,-1.10754 -0.70627,-2.24332 -1.08365,-3.35741 -0.47039,-1.17023 -0.88,-2.36184 -1.28778,-3.55483 -0.46457,-1.37268 -0.75361,-2.79277 -0.94774,-4.22609 -0.15826,-1.39628 -0.17655,-2.80199 -0.27285,-4.20285 -0.19185,-1.55431 -0.445,-3.0994 -0.61961,-4.65604 -0.16808,-1.50253 -0.22551,-3.01353 -0.2682,-4.52376 -0.0649,-1.75423 0.19102,-3.48672 0.52297,-5.20278 0.25437,-1.07745 0.42145,-2.1929 0.83561,-3.22668 0.41768,-1.04261 0.55146,-1.19795 1.09554,-2.1301 0.64698,-1.10847 1.38677,-1.88576 2.14044,-2.38229 3.60174,-5.299922 10.39508,-8.672754 21.84723,-7.427966 35.21062,3.827316 31.76699,25.643266 30.6188,33.680636 -0.17766,1.2436 -1.16348,3.71625 -2.49235,6.79028 0.10052,-0.0233 0.20056,-0.0478 0.29921,-0.076 0.36663,0.0773 0.74452,0.11257 1.09967,0.23203 0.20387,0.0686 0.38428,0.19696 0.55707,0.32505 0.66413,0.49231 1.05167,1.2206 1.21078,2.01796 0.081,0.65792 0.0743,1.31541 0.0594,1.97766 -0.008,0.75776 -0.0177,1.51627 -0.0522,2.27324 -0.0372,0.73839 -0.0888,1.4758 -0.18966,2.20866 -0.0851,0.70323 -0.10345,1.41193 -0.16175,2.1177 -0.11418,1.32037 -0.26178,2.64108 -0.56018,3.93464 -0.33078,1.42313 -0.68575,2.8413 -1.13533,4.2323 -0.36261,1.09581 -0.71254,2.19643 -1.1374,3.2706 -0.4359,1.11772 -0.84858,2.24805 -1.42575,3.30367 -0.70793,1.32796 -1.49705,2.61369 -2.55178,3.70004 -0.19216,0.18172 -0.37437,0.37425 -0.57619,0.54518 -1.01255,0.85754 -2.22259,1.39814 -3.56723,1.33894 -0.45346,-0.0392 -0.58283,-0.0382 -1.04438,-0.13126 -0.74417,-0.15011 -1.45915,-0.42533 -2.15542,-0.72088 -0.18044,-0.0866 -0.35919,-0.17621 -0.53795,-0.26614 -2.21279,9.69222 0.23305,15.14155 15.50964,6.17482 35.21062,-20.66705 11.8644,-34.06304 11.8644,-34.06304 0,0 10.33379,-15.30927 11.48198,-27.55646 1.1482,-12.24694 2.67871,-42.866474 -20.66747,-67.360742 C 150.03195,20.668607 126.68397,14.926707 103.3378,14.926707 Z m 54.2339,147.261293 c -0.0986,0.0809 -0.0981,0.10585 0,0 z" /><path
       id="path365"
       style="fill:#000000;stroke-width:0.264583"
       d="m 73.747437,113.9362 a 16.914522,14.208199 0 0 0 -16.91473,14.20843 16.914522,14.208199 0 0 0 16.91473,14.20792 A 16.914522,14.208199 0 0 0 90.66165,128.14463 16.914522,14.208199 0 0 0 73.747437,113.9362 Z" /><path
       id="path373"
       style="fill:#000000;stroke-width:0.264583"
       d="m 146.9533,112.04174 a 16.779205,14.884779 0 0 0 -16.77933,14.88488 16.779205,14.884779 0 0 0 16.77933,14.88488 16.779205,14.884779 0 0 0 16.77934,-14.88488 16.779205,14.884779 0 0 0 -16.77934,-14.88488 z" /><path
       id="path594"
       style="fill:#000000;stroke-width:0.264583"
       d="m 99.051318,138.56364 -8.118884,18.13274 c 0,0 -2.435666,11.90752 4.600753,15.96698 7.036413,4.05948 9.472293,-13.26069 9.472293,-13.26069 z" /><path
       id="path1328"
       style="fill:#000000;stroke-width:0.264583"
       d="m 27.070699,136.1736 c 0,0 -6.562854,1.6409 -10.664465,10.66447 -4.101612,9.02354 14.766197,39.64896 19.961572,38.82863 3.609803,-0.56996 3.918262,-6.02183 2.945557,-9.20615 -1.260199,1.85786 -4.074637,1.17695 -4.462777,-2.47375 -0.05218,-0.49075 -0.124057,-0.97904 -0.196887,-1.4671 -0.128915,-0.91032 -0.253388,-1.82567 -0.268718,-2.74608 4e-6,-0.64057 4.96e-4,-1.28076 5.17e-4,-1.92133 2.9e-5,-0.78304 -1.53e-4,-1.56618 0,-2.34921 1e-4,-0.72842 4e-4,-1.45699 0.0016,-2.1854 0.0012,-0.60281 0.0029,-1.20538 0.0088,-1.80816 0.0082,-0.73333 0.02108,-1.46701 0.05013,-2.19986 0.03745,-0.90021 0.08735,-1.80045 0.194821,-2.69545 0.08277,-0.714 0.163818,-1.42794 0.254248,-2.14095 0.06993,-0.635 0.140858,-1.26974 0.219108,-1.90376 0.08072,-0.65509 0.128822,-1.31399 0.224792,-1.96732 0.121587,-0.84999 0.217715,-1.70254 0.320911,-2.55489 0.134917,-0.95245 0.30416,-1.90201 0.35295,-2.86442 0.06633,-1.09124 0.130092,-2.18569 0.297139,-3.26698 0.171116,-1.10764 0.551907,-1.92564 1.031462,-2.47324 0.07234,-1.17696 0.119889,-1.90169 0.119889,-1.90169 z" /><path
       style="fill:#000000;stroke-width:0.264583"
       d="m 31.613083,137.76344 c 3.770368,0.58006 3.673692,3.67369 3.770368,0.58006 0.09668,-3.09364 5.897242,-3.09364 0.09668,-3.09364 -5.800566,0 -6.573975,-3.77037 -5.800566,0"
       id="path1351" /></g></svg>
